
<svg xmlns="http://www.w3.org/2000/svg" viewBox="0 0 200 200" width="200" height="200">
  <circle cx="100" cy="100" r="100" fill="#FFFFFF"/>
  <path d="M100,0 C44.8,0 0,44.8 0,100 C0,155.2 44.8,200 100,200 C155.2,200 200,155.2 200,100 C200,44.8 155.2,0 100,0 Z" fill="#FFFFFF"/>
  
  <!-- Green border circle -->
  <circle cx="100" cy="100" r="90" fill="none" stroke="#399B53" stroke-width="20"/>
  
  <!-- Black human figure -->
  <path d="M140,80 C140,69 131,60 120,60 C109,60 100,69 100,80 C100,91 109,100 120,100 C131,100 140,91 140,80 Z" fill="#000000"/>
  <path d="M170,130 C170,100 120,80 120,80 C120,80 100,100 100,130 C100,160 120,180 130,180 C140,180 170,160 170,130 Z" fill="#000000"/>
  
  <!-- Green leaves with dollar symbol -->
  <path d="M100,100 C70,100 50,120 50,140 C50,160 70,180 100,180 L100,140 L60,140 C60,120 80,110 100,110 Z" fill="#399B53"/>
  <path d="M80,140 C80,140 70,150 70,160 C70,170 80,180 90,180 L100,180 L100,140 Z" fill="#399B53"/>
  
  <!-- Dollar sign -->
  <text x="85" y="155" font-family="Arial" font-size="24" font-weight="bold" fill="#FFFFFF">$</text>
</svg>
